HIERARCHY
ROOT Hips
{
	OFFSET 0.000000 71.427986 0.000000
	CHANNELS 6 Xposition Yposition Zposition Xrotation Yrotation Zrotation
	JOINT Pelvis
	{
		OFFSET 0.000000 0.000000 0.000000
		CHANNELS 3 Xrotation Yrotation Zrotation
		JOINT LeftUpLeg
		{
			OFFSET 6.797100 -2.508499 -1.318700
			CHANNELS 3 Xrotation Yrotation Zrotation
			JOINT LeftLeg
			{
				OFFSET 0.069008 -29.241863 0.690200
				CHANNELS 3 Xrotation Yrotation Zrotation
				JOINT LeftFoot
				{
					OFFSET -0.069008 -29.568123 -0.266800
					CHANNELS 3 Xrotation Yrotation Zrotation
					JOINT LeftToeBase
					{
						OFFSET 3.145500 -8.631000 16.059900
						CHANNELS 3 Xrotation Yrotation Zrotation
						End Site
						{
							OFFSET 0.000000 18.501587 0.000000
						}
					}
				}
			}
			JOINT Left_ShortSleeve
			{
				OFFSET 0.265923 -10.480953 1.153800
				CHANNELS 3 Xrotation Yrotation Zrotation
				End Site
				{
					OFFSET 1.725763 19.823879 0.000000
				}
			}
		}
		JOINT RightUpLeg
		{
			OFFSET -6.797100 -2.508499 -1.318700
			CHANNELS 3 Xrotation Yrotation Zrotation
			JOINT RightLeg
			{
				OFFSET -0.082453 -29.241932 0.688000
				CHANNELS 3 Xrotation Yrotation Zrotation
				JOINT RightFoot
				{
					OFFSET 0.082453 -29.568058 -0.264600
					CHANNELS 3 Xrotation Yrotation Zrotation
					JOINT RightToeBase
					{
						OFFSET -3.115300 -8.682800 16.113400
						CHANNELS 3 Xrotation Yrotation Zrotation
						End Site
						{
							OFFSET 0.000000 18.567114 0.000000
						}
					}
				}
			}
			JOINT Right_ShortSleeve
			{
				OFFSET -0.265923 -10.480953 1.153800
				CHANNELS 3 Xrotation Yrotation Zrotation
				End Site
				{
					OFFSET -1.725766 19.823910 0.000000
				}
			}
		}
	}
	JOINT Spine
	{
		OFFSET 0.000000 13.368103 0.470500
		CHANNELS 3 Xrotation Yrotation Zrotation
		JOINT Spine1
		{
			OFFSET 0.147000 13.837402 0.538800
			CHANNELS 3 Xrotation Yrotation Zrotation
			JOINT Spine2
			{
				OFFSET 0.168000 16.242897 -1.435500
				CHANNELS 3 Xrotation Yrotation Zrotation
				JOINT Neck
				{
					OFFSET 0.217200 18.631500 -1.679100
					CHANNELS 3 Xrotation Yrotation Zrotation
					JOINT Head
					{
						OFFSET 0.000000 6.599396 1.385900
						CHANNELS 3 Xrotation Yrotation Zrotation
						JOINT Hat
						{
							OFFSET -0.532200 27.220596 -10.096100
							CHANNELS 3 Xrotation Yrotation Zrotation
							End Site
							{
								OFFSET 0.000000 22.029861 0.000000
							}
						}
						JOINT HairD
						{
							OFFSET -10.777400 17.437393 -1.325900
							CHANNELS 3 Xrotation Yrotation Zrotation
							JOINT HairD1
							{
								OFFSET -3.290299 -11.051193 1.062200
								CHANNELS 3 Xrotation Yrotation Zrotation
								End Site
								{
									OFFSET 0.000000 11.579437 0.000000
								}
							}
						}
						JOINT HairB
						{
							OFFSET -10.777400 17.437393 1.467900
							CHANNELS 3 Xrotation Yrotation Zrotation
							JOINT HairB1
							{
								OFFSET -1.561200 -12.956299 3.590200
								CHANNELS 3 Xrotation Yrotation Zrotation
								End Site
								{
									OFFSET 0.000000 13.534866 0.000000
								}
							}
						}
						JOINT HairA
						{
							OFFSET 9.713100 17.437393 1.467900
							CHANNELS 3 Xrotation Yrotation Zrotation
							JOINT HairA1
							{
								OFFSET 1.561200 -12.956299 3.590200
								CHANNELS 3 Xrotation Yrotation Zrotation
								End Site
								{
									OFFSET 0.000000 13.534866 0.000000
								}
							}
						}
						JOINT HairC
						{
							OFFSET 9.713100 17.437393 -1.325900
							CHANNELS 3 Xrotation Yrotation Zrotation
							JOINT HairC1
							{
								OFFSET 3.290300 -11.051193 1.062200
								CHANNELS 3 Xrotation Yrotation Zrotation
								End Site
								{
									OFFSET 0.000000 11.579437 0.000000
								}
							}
						}
					}
				}
				JOINT LeftShoulder
				{
					OFFSET 5.101800 15.108002 -2.763700
					CHANNELS 3 Xrotation Yrotation Zrotation
					JOINT LeftArm
					{
						OFFSET 9.825497 2.506317 -1.597400
						CHANNELS 3 Xrotation Yrotation Zrotation
						JOINT LeftForeArm
						{
							OFFSET 21.966244 0.000000 0.000000
							CHANNELS 3 Xrotation Yrotation Zrotation
							JOINT LeftHand
							{
								OFFSET 33.879036 0.000000 0.000000
								CHANNELS 3 Xrotation Yrotation Zrotation
								JOINT LeftHandThumb1
								{
									OFFSET 6.715286 -2.359680 3.363841
									CHANNELS 3 Xrotation Yrotation Zrotation
									JOINT LeftHandThumb2
									{
										OFFSET 2.507072 -1.447464 1.447461
										CHANNELS 3 Xrotation Yrotation Zrotation
										JOINT LeftHandThumb3
										{
											OFFSET 2.898338 -1.673355 1.673357
											CHANNELS 3 Xrotation Yrotation Zrotation
											End Site
											{
												OFFSET -0.295959 3.727692 -0.131651
											}
										}
									}
								}
								JOINT LeftHandIndex1
								{
									OFFSET 14.190811 -0.254547 3.840278
									CHANNELS 3 Xrotation Yrotation Zrotation
									JOINT LeftHandIndex2
									{
										OFFSET 3.551727 0.000000 -0.000000
										CHANNELS 3 Xrotation Yrotation Zrotation
										JOINT LeftHandIndex3
										{
											OFFSET 2.894196 0.000000 0.000000
											CHANNELS 3 Xrotation Yrotation Zrotation
											End Site
											{
												OFFSET -1.000603 2.690872 0.366626
											}
										}
									}
								}
								JOINT LeftHandMiddle1
								{
									OFFSET 13.776489 0.000000 0.000000
									CHANNELS 3 Xrotation Yrotation Zrotation
									JOINT LeftHandMiddle2
									{
										OFFSET 3.438232 0.000000 0.000000
										CHANNELS 3 Xrotation Yrotation Zrotation
										JOINT LeftHandMiddle3
										{
											OFFSET 3.691551 0.000000 0.000000
											CHANNELS 3 Xrotation Yrotation Zrotation
											End Site
											{
												OFFSET -1.082298 3.499527 0.457670
											}
										}
									}
								}
								JOINT LeftHandRing1
								{
									OFFSET 13.966164 -0.268127 -3.067488
									CHANNELS 3 Xrotation Yrotation Zrotation
									JOINT LeftHandRing2
									{
										OFFSET 3.162567 0.000000 0.000000
										CHANNELS 3 Xrotation Yrotation Zrotation
										JOINT LeftHandRing3
										{
											OFFSET 3.324348 0.000000 0.000000
											CHANNELS 3 Xrotation Yrotation Zrotation
											End Site
											{
												OFFSET -0.861900 3.184998 0.405154
											}
										}
									}
								}
								JOINT LeftHandPinky1
								{
									OFFSET 13.131393 -0.168503 -5.746925
									CHANNELS 3 Xrotation Yrotation Zrotation
									JOINT LeftHandPinky2
									{
										OFFSET 2.849182 0.000000 0.000000
										CHANNELS 3 Xrotation Yrotation Zrotation
										JOINT LeftHandPinky3
										{
											OFFSET 2.805038 0.000000 0.000000
											CHANNELS 3 Xrotation Yrotation Zrotation
											End Site
											{
												OFFSET -0.882500 2.642609 0.325652
											}
										}
									}
								}
							}
							JOINT Left_Sleeve
							{
								OFFSET 6.592125 -0.646545 0.805568
								CHANNELS 3 Xrotation Yrotation Zrotation
								End Site
								{
									OFFSET -0.000179 20.275787 -0.000000
								}
							}
						}
					}
				}
				JOINT RightShoulder
				{
					OFFSET -5.731700 15.108002 -2.763700
					CHANNELS 3 Xrotation Yrotation Zrotation
					JOINT RightArm
					{
						OFFSET -9.825497 2.506317 -1.597400
						CHANNELS 3 Xrotation Yrotation Zrotation
						JOINT RightForeArm
						{
							OFFSET -21.966242 0.000000 0.000000
							CHANNELS 3 Xrotation Yrotation Zrotation
							JOINT RightHand
							{
								OFFSET -33.879032 0.000000 0.000000
								CHANNELS 3 Xrotation Yrotation Zrotation
								JOINT RightHandThumb1
								{
									OFFSET -6.715286 -2.359680 3.363841
									CHANNELS 3 Xrotation Yrotation Zrotation
									JOINT RightHandThumb2
									{
										OFFSET -2.507072 -1.447464 1.447461
										CHANNELS 3 Xrotation Yrotation Zrotation
										JOINT RightHandThumb3
										{
											OFFSET -2.898338 -1.673355 1.673357
											CHANNELS 3 Xrotation Yrotation Zrotation
											End Site
											{
												OFFSET 0.295959 3.727692 -0.131651
											}
										}
									}
								}
								JOINT RightHandIndex1
								{
									OFFSET -14.190811 -0.254547 3.840278
									CHANNELS 3 Xrotation Yrotation Zrotation
									JOINT RightHandIndex2
									{
										OFFSET -3.551727 0.000000 -0.000000
										CHANNELS 3 Xrotation Yrotation Zrotation
										JOINT RightHandIndex3
										{
											OFFSET -2.894196 0.000000 0.000000
											CHANNELS 3 Xrotation Yrotation Zrotation
											End Site
											{
												OFFSET 1.000603 2.690872 0.366626
											}
										}
									}
								}
								JOINT RightHandMiddle1
								{
									OFFSET -13.776489 0.000000 0.000000
									CHANNELS 3 Xrotation Yrotation Zrotation
									JOINT RightHandMiddle2
									{
										OFFSET -3.438232 0.000000 0.000000
										CHANNELS 3 Xrotation Yrotation Zrotation
										JOINT RightHandMiddle3
										{
											OFFSET -3.691551 0.000000 0.000000
											CHANNELS 3 Xrotation Yrotation Zrotation
											End Site
											{
												OFFSET 1.082298 3.499527 0.457670
											}
										}
									}
								}
								JOINT RightHandRing1
								{
									OFFSET -13.966164 -0.268127 -3.067488
									CHANNELS 3 Xrotation Yrotation Zrotation
									JOINT RightHandRing2
									{
										OFFSET -3.162567 0.000000 0.000000
										CHANNELS 3 Xrotation Yrotation Zrotation
										JOINT RightHandRing3
										{
											OFFSET -3.324348 0.000000 0.000000
											CHANNELS 3 Xrotation Yrotation Zrotation
											End Site
											{
												OFFSET 0.861900 3.184998 0.405154
											}
										}
									}
								}
								JOINT RightHandPinky1
								{
									OFFSET -13.131393 -0.168503 -5.746925
									CHANNELS 3 Xrotation Yrotation Zrotation
									JOINT RightHandPinky2
									{
										OFFSET -2.849182 0.000000 0.000000
										CHANNELS 3 Xrotation Yrotation Zrotation
										JOINT RightHandPinky3
										{
											OFFSET -2.805038 0.000000 0.000000
											CHANNELS 3 Xrotation Yrotation Zrotation
											End Site
											{
												OFFSET 0.882500 2.642609 0.325652
											}
										}
									}
								}
							}
							JOINT Right_Sleeve
							{
								OFFSET -6.592125 -0.646545 0.805568
								CHANNELS 3 Xrotation Yrotation Zrotation
								End Site
								{
									OFFSET 0.000179 20.275787 -0.000000
								}
							}
						}
					}
				}
				JOINT Bind_Right_JacketString
				{
					OFFSET -3.534800 11.969597 7.200700
					CHANNELS 3 Xrotation Yrotation Zrotation
					JOINT Bind_Right_JacketString1
					{
						OFFSET -0.319900 -6.102600 2.794100
						CHANNELS 3 Xrotation Yrotation Zrotation
						End Site
						{
							OFFSET 0.000000 6.719452 0.000000
						}
					}
				}
				JOINT Bind_Left_JacketString
				{
					OFFSET 2.904800 11.969597 7.200700
					CHANNELS 3 Xrotation Yrotation Zrotation
					JOINT Bind_Left_JacketString1
					{
						OFFSET 0.364800 -5.904503 3.186800
						CHANNELS 3 Xrotation Yrotation Zrotation
						End Site
						{
							OFFSET 0.000000 6.719513 0.000000
						}
					}
				}
				JOINT HairE
				{
					OFFSET 5.915200 17.612701 -11.592200
					CHANNELS 3 Xrotation Yrotation Zrotation
					JOINT HairE1
					{
						OFFSET 0.289200 -7.171898 -1.284500
						CHANNELS 3 Xrotation Yrotation Zrotation
						End Site
						{
							OFFSET 0.000000 7.291756 0.000000
						}
					}
				}
				JOINT HairF
				{
					OFFSET -0.864800 17.612701 -11.592200
					CHANNELS 3 Xrotation Yrotation Zrotation
					JOINT HairF1
					{
						OFFSET 0.000000 -14.087097 -2.127501
						CHANNELS 3 Xrotation Yrotation Zrotation
						End Site
						{
							OFFSET 0.000000 14.246841 0.000000
						}
					}
				}
				JOINT HairG
				{
					OFFSET -8.087700 17.612701 -11.592200
					CHANNELS 3 Xrotation Yrotation Zrotation
					JOINT HairG1
					{
						OFFSET -0.293600 -6.081398 -0.910100
						CHANNELS 3 Xrotation Yrotation Zrotation
						End Site
						{
							OFFSET 0.000000 6.156120 0.000000
						}
					}
				}
			}
		}
	}
	JOINT Pouch
	{
		OFFSET 0.000000 4.394501 10.847300
		CHANNELS 3 Xrotation Yrotation Zrotation
		End Site
		{
			OFFSET 0.000000 21.880577 0.000000
		}
	}
	JOINT Bag
	{
		OFFSET -13.229000 4.813004 -0.593300
		CHANNELS 3 Xrotation Yrotation Zrotation
		End Site
		{
			OFFSET 0.000000 21.880577 0.000000
		}
	}
	JOINT OccupyGuyFacialAnim_Joint
	{
		OFFSET 1.000000 -70.206398 -1.655000
		CHANNELS 3 Xrotation Yrotation Zrotation
		End Site
		{
			OFFSET 0.000000 21.880577 0.000000
		}
	}
}
MOTION
Frames: 4
Frame Time: 0.033333
-2.365751 67.571564 3.209986 5.443096 -51.100381 16.340707 -0.000000 -0.000001 -0.000000 -25.771499 -0.748125 -17.416318 22.096548 -7.585740 1.978779 0.015942 -11.140266 1.554865 0.000000 -0.000001 0.000000 0.000001 0.000003 0.000001 -28.966378 -5.339853 -27.350029 42.715173 -6.972865 1.889775 -16.549694 -3.497789 10.713755 0.000000 0.000001 -0.000000 -0.000001 -0.000001 -0.000000 2.672244 10.123637 12.504226 14.773757 8.098144 3.282010 15.663739 7.351452 3.344334 5.573559 0.641886 6.766118 -1.019385 11.770143 -2.893189 -0.000000 0.000000 0.000002 -0.000000 0.000000 0.000002 -0.000000 0.000000 0.000003 -0.000000 0.000000 0.000002 0.000000 -0.000001 -0.000001 -0.000000 0.000000 0.000002 0.000000 -0.000001 -0.000001 -0.000000 0.000000 0.000002 -0.000000 0.000000 0.000002 -5.503772 -23.539808 -6.847126 -24.159132 -24.425023 -63.181265 -0.000053 -67.462093 -0.000087 -45.923023 51.097506 35.319390 4.244513 -1.167927 26.681958 -8.804091 20.473943 3.155443 0.000000 0.000002 0.000003 -1.519558 0.784379 -27.855776 6.457517 5.819613 -95.959718 0.000001 -0.000001 -0.000002 -3.972251 1.418833 -48.654573 5.489936 5.839946 -86.455121 0.000000 0.000007 -0.000000 -0.005398 5.352753 -54.897557 6.394440 5.825879 -95.337857 -0.000002 -0.000001 -0.000003 4.893802 8.327422 -64.899167 5.189779 5.813706 -83.499288 -0.000001 -0.000002 0.000001 -0.000001 -0.000000 0.000002 -3.224603 20.664568 23.263194 -46.704533 17.877190 64.633711 -0.000015 43.620993 0.000006 -38.183674 -32.669724 -11.717801 -3.768032 -24.346057 -24.043523 -17.646939 -10.584126 3.519714 -0.000001 0.000001 -0.000000 1.098493 1.369968 -20.429897 3.049661 -4.371489 69.787594 -0.000000 -0.000001 0.000000 -3.194101 7.329923 17.978866 5.149978 -4.631075 96.081179 0.000002 0.000000 -0.000001 -9.391578 10.045066 35.529036 4.506834 -4.654751 88.147935 -0.000000 -0.000001 -0.000001 -7.977924 1.709746 52.437862 1.051098 -2.949081 39.226996 0.000000 -0.000001 0.000004 0.000002 -0.000000 0.000000 0.000002 0.000000 -0.000002 0.000003 0.000000 -0.000000 0.000002 0.000000 -0.000001 0.000002 0.000000 -0.000001 0.000002 0.000000 -0.000002 0.000003 0.000000 -0.000000 0.000002 0.000000 -0.000001 0.000002 0.000000 -0.000001 0.000002 0.000000 -0.000002 0.000003 0.000000 -0.000000 -0.000000 -0.000001 -0.000000 -0.000000 -0.000001 -0.000000 -0.000000 -0.000001 -0.000000 
-2.378954 67.560425 3.225396 5.149559 -50.777143 16.191527 -0.000001 0.000002 -0.000000 -25.678154 -0.970913 -17.688201 22.095092 -7.512370 2.097917 0.021105 -11.261934 1.500705 -0.000000 -0.000000 -0.000000 0.000000 -0.000002 -0.000000 -28.823009 -5.456932 -27.563496 42.855619 -7.030733 1.921914 -16.671781 -3.602403 10.769520 0.000000 0.000000 0.000000 -0.000000 0.000000 0.000000 2.659040 10.123143 12.480716 14.766476 8.106371 3.278849 15.655048 7.364340 3.339811 5.512600 0.701128 6.819285 -1.151855 12.211857 -3.061843 0.000000 -0.000000 0.000001 0.000000 -0.000000 0.000001 0.000000 -0.000000 0.000002 0.000000 -0.000000 -0.000000 0.000000 -0.000001 -0.000000 0.000000 -0.000000 -0.000000 0.000000 -0.000001 -0.000000 0.000000 -0.000000 0.000001 0.000000 -0.000000 0.000001 -5.490481 -23.418951 -6.791052 -23.974819 -24.635890 -63.068225 -0.000001 -67.639295 0.000001 -46.159784 51.212506 35.494055 4.052973 -1.209692 26.800228 -8.845946 20.701911 2.765985 -0.000001 0.000002 -0.000001 -1.519846 0.769934 -27.780459 6.459635 5.819421 -95.980632 0.000002 -0.000003 -0.000001 -3.975077 1.415775 -48.651898 5.490420 5.839969 -86.460168 -0.000001 0.000003 -0.000001 -0.003959 5.377846 -55.257975 6.393564 5.825953 -95.329141 0.000001 -0.000001 0.000001 4.863101 8.301101 -65.307489 5.186284 5.813303 -83.464932 -0.000000 -0.000001 -0.000001 0.000004 0.000000 -0.000001 -3.227390 20.630791 23.300055 -46.449142 18.061030 64.495338 -0.000017 43.887801 0.000017 -38.642451 -32.592867 -11.936764 -3.796504 -24.278601 -24.054594 -17.653609 -10.616176 3.608527 0.000003 0.000000 -0.000000 1.067394 1.290966 -20.393085 3.050832 -4.371919 69.802983 -0.000001 -0.000001 0.000004 -3.212020 7.328247 18.067059 5.150279 -4.631044 96.084806 0.000001 0.000000 0.000001 -9.401016 10.063873 35.522069 4.506704 -4.654758 88.146624 0.000001 -0.000000 -0.000004 -7.968969 1.705941 52.425817 1.052339 -2.950578 39.251072 -0.000002 0.000001 -0.000003 0.000000 -0.000000 -0.000001 -0.000000 0.000000 0.000001 -0.000000 -0.000002 0.000001 -0.000000 0.000000 0.000001 -0.000000 0.000000 0.000001 -0.000000 0.000000 0.000001 -0.000000 -0.000002 0.000001 -0.000000 0.000000 0.000001 -0.000000 0.000000 0.000001 -0.000000 0.000000 0.000001 -0.000000 -0.000002 0.000001 -0.000001 0.000002 -0.000000 -0.000001 0.000002 -0.000000 -0.000001 0.000002 -0.000000 
-2.399771 67.553177 3.235617 4.856212 -50.448706 16.043957 -0.000000 0.000002 -0.000000 -25.553365 -1.145339 -17.918713 22.066543 -7.463791 2.173402 0.038854 -11.431172 1.472714 0.000000 0.000000 0.000000 -0.000001 -0.000001 -0.000000 -28.624742 -5.498538 -27.722833 42.982401 -7.083436 1.946162 -16.790628 -3.822084 10.828368 -0.000000 0.000001 -0.000000 -0.000001 0.000001 -0.000000 2.633297 10.118067 12.487292 14.752319 8.114599 3.285706 15.640822 7.376344 3.345628 5.484539 0.731976 6.818594 -1.350256 12.353643 -3.050628 -0.000000 -0.000000 -0.000001 -0.000000 -0.000000 -0.000001 -0.000000 -0.000000 0.000000 -0.000000 -0.000000 -0.000003 -0.000000 -0.000000 0.000001 -0.000000 -0.000000 -0.000003 -0.000000 -0.000000 0.000001 -0.000000 -0.000000 -0.000001 -0.000000 -0.000000 -0.000001 -5.489980 -23.345056 -6.777514 -23.602299 -24.934960 -62.765170 0.000020 -67.845724 0.000012 -46.739131 51.154968 35.899136 3.883348 -1.289122 26.895794 -8.844991 20.904701 2.396374 -0.000001 0.000004 0.000001 -1.521025 0.758086 -27.728683 6.461956 5.819168 -96.003486 0.000001 0.000000 0.000002 -3.969641 1.422158 -48.659811 5.491491 5.840030 -86.470523 -0.000000 0.000001 -0.000001 0.005020 5.407495 -55.609382 6.392929 5.826011 -95.322687 -0.000000 -0.000003 -0.000000 4.824707 8.273516 -65.669359 5.182284 5.812865 -83.425242 -0.000001 0.000001 0.000003 0.000000 0.000007 -0.000002 -3.232829 20.617329 23.339194 -46.178557 18.232261 64.343360 -0.000023 44.085050 0.000036 -38.995896 -32.519091 -12.032992 -3.831398 -24.230941 -24.071135 -17.657721 -10.658866 3.736749 0.000001 -0.000001 0.000002 1.040317 1.228461 -20.295760 3.051180 -4.372064 69.807525 0.000002 0.000002 0.000001 -3.217196 7.301827 18.130134 5.150931 -4.630976 96.092791 0.000001 -0.000001 0.000003 -9.407419 10.087680 35.498443 4.506178 -4.654742 88.139869 0.000000 -0.000000 0.000001 -7.943406 1.690525 52.407300 1.051539 -2.949618 39.235468 0.000001 0.000000 0.000002 -0.000001 -0.000000 0.000000 0.000001 0.000000 -0.000000 -0.000000 0.000000 -0.000002 0.000001 0.000000 -0.000000 0.000001 0.000000 -0.000000 0.000001 0.000000 -0.000000 -0.000000 0.000000 -0.000002 0.000001 0.000000 -0.000000 0.000001 0.000000 -0.000000 0.000001 0.000000 -0.000000 -0.000000 0.000000 -0.000002 -0.000000 0.000002 -0.000000 -0.000000 0.000002 -0.000000 -0.000000 0.000002 -0.000000 
-2.427016 67.553024 3.239080 4.564335 -50.104755 15.900655 0.000000 0.000003 -0.000000 -25.362378 -1.193496 -18.035931 21.969403 -7.470087 2.093823 0.108180 -11.734211 1.544418 0.000000 0.000001 0.000000 -0.000000 -0.000000 -0.000000 -28.388189 -5.513238 -27.845534 43.080319 -7.144170 1.956841 -16.899104 -4.104374 10.890060 -0.000000 -0.000001 -0.000000 0.000001 0.000001 -0.000001 2.614074 10.087914 12.527538 14.737496 8.108169 3.306415 15.625875 7.371015 3.366241 5.401060 0.736145 6.806799 -1.381924 12.374652 -3.044644 -0.000001 0.000000 -0.000002 -0.000001 0.000000 -0.000002 -0.000001 0.000000 -0.000001 -0.000001 0.000000 -0.000001 -0.000001 0.000002 0.000001 -0.000001 0.000000 -0.000001 -0.000001 0.000002 0.000001 -0.000001 0.000000 -0.000002 -0.000001 0.000000 -0.000002 -5.467519 -23.331506 -6.713768 -23.309363 -24.941998 -62.690338 0.000028 -68.054236 0.000028 -47.012906 51.064687 36.209319 3.757645 -1.345846 26.966424 -8.782312 21.088129 2.020518 -0.000000 -0.000002 0.000001 -1.515844 0.760103 -27.685321 6.463894 5.818973 -96.022658 0.000000 0.000004 0.000001 -3.950672 1.437283 -48.649494 5.493857 5.840176 -86.493773 0.000000 0.000002 -0.000001 0.014332 5.435961 -55.941333 6.392120 5.826085 -95.314887 -0.000001 0.000001 -0.000002 4.776667 8.244026 -65.974409 5.179508 5.812535 -83.397812 -0.000000 -0.000000 0.000003 0.000001 -0.000001 -0.000002 -3.249402 20.580398 23.455974 -46.020862 18.284444 64.297188 -0.000006 44.163938 0.000008 -38.956090 -32.513654 -11.911043 -3.854562 -24.248573 -24.086951 -17.655704 -10.694568 3.856145 -0.000000 0.000001 0.000005 1.020157 1.179739 -20.240526 3.051348 -4.372143 69.809738 0.000000 0.000000 -0.000001 -3.205313 7.269086 18.120772 5.151229 -4.630945 96.096431 -0.000001 0.000001 -0.000001 -9.407798 10.116356 35.450437 4.506271 -4.654733 88.141242 0.000001 0.000000 -0.000002 -7.908311 1.676937 52.354650 1.049023 -2.946515 39.186530 -0.000002 -0.000000 0.000002 0.000001 -0.000000 0.000000 0.000000 0.000001 0.000001 -0.000000 0.000001 0.000001 0.000000 0.000001 0.000002 0.000000 0.000001 0.000002 0.000000 0.000001 0.000001 -0.000000 0.000001 0.000001 0.000000 0.000001 0.000002 0.000000 0.000001 0.000002 0.000000 0.000001 0.000001 -0.000000 0.000001 0.000001 0.000000 0.000003 -0.000000 0.000000 0.000003 -0.000000 0.000000 0.000003 -0.000000 
